# xmcd CD database file
#
# Track frame offsets:
#	150
#	19661
#	36915
#	56486
#	77186
#	96609
#	120094
#	139377
#	162610
#	184312
#
# Disc length: 2712 seconds
#
# Revision: 1
# Processed by: cddbd v1.5PL3 Copyright (c) Steve Scherf et al.
# Submitted via: CDex 1.51
#
DISCID=8a0a960a
DTITLE=LEE MONNIS - I GOT PLAYED ON
DYEAR=1900
DGENRE=Blues
TTITLE0=PARTY TIME WEEKEND
TTITLE1=I GOT PLAYED ON
TTITLE2=NEED A SUPER STAR
TTITLE3=I DON`T KNOW YOU ANYMORE
TTITLE4=I STELL IN LOVE WITH YOU
TTITLE5=WE GOT A MATCH MADE IN HEAVEN
TTITLE6=ACTION AT THE JUNK YARD
TTITLE7=PARTY ALL NIGHT
TTITLE8=CABLE MAN
TTITLE9=DON`T YOU LIE
EXTD=
EXTT0=
EXTT1=
EXTT2=
EXTT3=
EXTT4=
EXTT5=
EXTT6=
EXTT7=
EXTT8=
EXTT9=
PLAYORDER=
